
<svg width="702" height="349" viewBox="0 0 702 349" fill="none" xmlns="http://www.w3.org/2000/svg">
<path d="M479 147H472.5M479 147V171.5M479 147H650M479 277.5H528.5M479 277.5V171.5M479 277.5H472.5M528.5 277.5V245H536.5V277.5M528.5 277.5V284.5M536.5 277.5H671.5M536.5 277.5V284.5M671.5 277.5V284.5M671.5 277.5V271M671.5 147H677.5M671.5 147V271M671.5 147H650M677.5 147H701V139.5H650M677.5 147V271M671.5 309.5H677.5V271M671.5 309.5V284.5M671.5 309.5V271M671.5 284.5H536.5M472.5 147V171.5M472.5 147V139.5H478.5H650M479 171.5H472.5M472.5 171.5V277.5M671.5 271H677.5M536.5 284.5H528.5M528.5 284.5L472.5 285V277.5M650 139.5V147" stroke="black"/>
<path d="M394.5 127H387.5V119.5M394.5 127V119.5M394.5 127H417M394.5 1H387.5V39.2621M394.5 1L394.5 7.76716M394.5 1H529.5M387.5 39.2621H394.5M387.5 39.2621V75.5103M394.5 39.2621V75.5103M394.5 39.2621V7.76716M394.5 75.5103H387.5M394.5 75.5103V119.5M387.5 75.5103L387.5 119.5M394.5 119.5H387.5M394.5 119.5L478.5 119.814M478.5 119.814V139.448H650M478.5 119.814H472.5M472.5 119.814V127M472.5 119.814H417V127M472.5 127V147H478.5H650M472.5 127H417M650 147H701V139.448H678.5M650 147V139.448M650 139.448H672M672 139.448H678.5M672 139.448V14.0897M672 1H678.5V14.0897M672 1V7.54483M672 1H536.5M678.5 139.448V14.0897M678.5 14.0897H672M672 14.0897V7.54483M672 7.54483H536.5M536.5 7.54483V39.2621H529.5V7.54483M536.5 7.54483V1M529.5 7.54483V1M529.5 7.54483L394.5 7.76716M529.5 1H536.5" stroke="black"/>
<path d="M254 164V158.5H205V164H229.438L228.939 285M254 164H234.001L234.5 278M254 164V185.5C267.612 182.525 273.897 178.336 275.814 164.5M234.5 285H228.939M234.5 285V278M234.5 285H252.377M228.939 285H252.377M387.517 285H394M387.517 285V278M387.517 285H355.103M387.517 285V288H394V285M275.814 164.5V158.5H279.804M275.814 164.5H279.804M394 285V246.5M387.517 246.5H394M387.517 246.5V198M387.517 246.5V278M394 246.5V198M394 198V158.5H355.103M394 198H387.517M387.517 198V164.5H355.103M355.103 164.5V158.5M355.103 164.5H318.202M355.103 158.5H318.202M318.202 158.5H315.459H279.804M318.202 158.5V164.5M318.202 164.5H279.804M279.804 164.5V158.5M387.517 278H355.103M234.5 278H252.377H290.775M252.377 285H290.775M290.775 278V285M290.775 278H315.459M290.775 285H315.459M315.459 285V278M315.459 285H355.103M315.459 278H355.103M355.103 278V285" stroke="black"/>
<path d="M255.183 127V122H234.5M255.183 127H234.5M255.183 127H295M234.5 122V8M234.5 122V127M234.5 122H295M300.805 122V127H295M300.805 122C300.805 122 300.87 101.91 300.805 100.5C300.739 99.0902 321.081 103 321.081 119.5M300.805 122H295M321.081 119.5V127H366.702M321.081 119.5H366.702M387.5 127H366.702M387.5 127H394.5V119.5M387.5 127L387.909 75.5M366.702 127V119.5M366.702 119.5H387.53H394.5M387.5 1H357.071M387.5 1H394.5V39M387.5 1L387.198 39M227.811 8V1H234.5M227.811 8H234.5M227.811 8V122H205V127H234.5M234.5 8V1M234.5 8H250.621M234.5 1H250.621M250.621 1V8M250.621 1H290.16M250.621 8H357.071M387.444 8H357.071M357.071 8V1M357.071 1H315.505M315.505 1V8H290.16V1M315.505 1H290.16M394.5 39H387.198M394.5 39V75.5M387.198 39L387.909 75.5M387.909 75.5H394.5M394.5 75.5V119.5M295 122V127" stroke="black"/>
<path d="M1 285V277.5H32V259M1 285H38M1 285H229M38 285V277.5M38 285H40.5M38 259H32M38 259V217.5M38 259V277.5M32 259V217.5M32 217.5H38M32 217.5V178.5M38 217.5V163M38 178.5H32M32 178.5V163M32 163V146.5H21H7V139.5H32H38M32 163H38M38 163V146.5M38 146.5H95.5M38 146.5V139.5M95.5 146.5V139.5M95.5 146.5H174.5M95.5 139.5H38M95.5 139.5H174.5M174.5 146.5V164.5H179.75M174.5 146.5V139.5M185 164.5C185.734 178.275 190.978 182.488 205 185.5V164.5M185 164.5H179.75M185 164.5V158.5H179.75M205 164.5H229M205 164.5V158.5H254V164.5H234.5V285H229M229 164.5V277.5M229 164.5V285M229 277.5H208M229 277.5V285M208 277.5V285H187.5V277.5M208 277.5H187.5M187.5 277.5H109M150 277.5V285H109V277.5M109 277.5H81.5M38 277.5H40.5M40.5 285V277.5M40.5 285H81.5V277.5M40.5 277.5H81.5M174.5 139.5V122H179.75V158.5M179.75 164.5V158.5" stroke="black"/>
<path d="M31.5 8H1V1H38H79M31.5 8H38M31.5 8V27M31.5 139.5H38M31.5 139.5V123.5M31.5 139.5H7V146.5H95.5M38 139.5V123.5M38 139.5H95.5M38 8H79M38 8V27M227.5 8V10.5M227.5 8H206.5M227.5 8H234.5M227.5 122H205M227.5 122V10.5M227.5 122V1M205 122V101.5C192 101.5 185 109 185 122M205 122V127H227.5H234.5V8M185 122H180M185 122V127.5H180M174.5 139.5V122H180M174.5 139.5H95.5M174.5 139.5V146.5M227.5 1V10.5M227.5 1H206.5M227.5 1H234.5V8M206.5 8V1M206.5 8H186.5M206.5 8H148.5M206.5 1H186.5M186.5 1V8M186.5 1H148.5H107.5M186.5 8H148.5M148.5 8H107.5M148.5 8H79M107.5 1V8M107.5 1H79M107.5 8H79M79 8V1M31.5 27H38M31.5 27V68M38 27V68M38 68H31.5M38 68V87.5V107.5M31.5 68V107.5M31.5 107.5H38M31.5 107.5V123.5M38 107.5V123.5M38 123.5H31.5M174.5 146.5V164.5H180V127.5M174.5 146.5H95.5M180 122V127.5M95.5 139.5V146.5" stroke="black"/>
<path d="M459 220L471.99 226.75H446.01L459 220Z" fill="#393737"/>
<path d="M431 192L437 179.01V204.99L431 192Z" fill="#393737"/>
<path d="M438.5 332V348.5H348.5M438.5 332H492.5V277.5H472M438.5 332H433M433 277.5V292H437.75M433 277.5H430V264.25M433 277.5H437.75M433 332V326M433 332H387.5V326H400.5M433 326H426.5M433 326V321.75V317.5H437.75M426.5 326V332H400.5V326M426.5 326H408.5M400.5 326H408.5M348.5 348.5H341.5V285H348.5V348.5ZM445.5 251V264.25M445.5 251H437.75M445.5 251V245.5M445.5 251L472 251.5M445.5 251L472 264.25M445.5 251L462 277.5M445.5 206.5H437.75M445.5 206.5V179M445.5 206.5L472 179M445.5 206.5H472M445.5 206.5V212.5M472 179H445.5M472 179V206.5M472 277.5V264.25M472 277.5H462M430 264.25V251H437.75M430 264.25H437.75M445.5 264.25V277.5M445.5 264.25H437.75M445.5 264.25H458.991V245.5V222M445.5 277.5H437.75M445.5 277.5H462M437.75 264.25V251M437.75 264.25V277.5M437.75 192.5H458.991V212.5M437.75 192.5V179M437.75 192.5V206.5M437.75 179H430V206.5H437.75M437.75 179H445.5M472 206.5V212.5M472 212.5V222M472 212.5H458.991M445.5 212.5V222M445.5 212.5H458.991M445.5 222V229.5M445.5 222H458.991M472 222V229.5M472 222H458.991M472 229.5H445.5M472 229.5V236M445.5 229.5V236M445.5 236H472M445.5 236V245.5M472 236V245.5M472 245.5H445.5M472 245.5V251.5M472 251.5V264.25M458.991 212.5V222M437.75 317.5H439.5V325H486V285H439.5V292H437.75M437.75 317.5V304.75M437.75 292V304.75M408.5 326C407.738 313.428 404.272 308.084 387.5 304.5C399.767 302.867 404.918 300.174 405.5 286.5H387.5M437.75 304.75H439.5" stroke="black"/>
</svg>
