<svg width="24" height="24" viewBox="0 0 24 24" fill="none" xmlns="http://www.w3.org/2000/svg">
<path d="M16.1 13.3L14.65 11.85C14.8 11.0666 14.575 10.3333 13.975 9.64998C13.375 8.96664 12.6 8.69998 11.65 8.84998L10.2 7.39998C10.4833 7.26664 10.7707 7.16664 11.062 7.09998C11.354 7.03331 11.6667 6.99998 12 6.99998C13.25 6.99998 14.3127 7.43731 15.188 8.31198C16.0627 9.18731 16.5 10.25 16.5 11.5C16.5 11.8333 16.4667 12.146 16.4 12.438C16.3333 12.7293 16.2333 13.0166 16.1 13.3ZM19.3 16.45L17.85 15.05C18.4833 14.5666 19.046 14.0373 19.538 13.462C20.0293 12.8873 20.45 12.2333 20.8 11.5C19.9667 9.81664 18.7707 8.47898 17.212 7.48698C15.654 6.49564 13.9167 5.99998 12 5.99998C11.5167 5.99998 11.0417 6.03331 10.575 6.09998C10.1083 6.16664 9.64999 6.26664 9.19999 6.39998L7.64999 4.84998C8.33332 4.56664 9.03332 4.35398 9.74999 4.21198C10.4667 4.07064 11.2167 3.99998 12 3.99998C14.3833 3.99998 16.525 4.62898 18.425 5.88698C20.325 7.14564 21.75 8.78331 22.7 10.8C22.75 10.8833 22.7833 10.9873 22.8 11.112C22.8167 11.2373 22.825 11.3666 22.825 11.5C22.825 11.6333 22.8127 11.7623 22.788 11.887C22.7627 12.0123 22.7333 12.1166 22.7 12.2C22.3167 13.05 21.8377 13.8333 21.263 14.55C20.6877 15.2666 20.0333 15.9 19.3 16.45ZM19.1 21.9L15.6 18.45C15.0167 18.6333 14.4293 18.771 13.838 18.863C13.246 18.9543 12.6333 19 12 19C9.61665 19 7.47499 18.371 5.57499 17.113C3.67499 15.8543 2.24999 14.2166 1.29999 12.2C1.24999 12.1166 1.21665 12.0123 1.19999 11.887C1.18332 11.7623 1.17499 11.6333 1.17499 11.5C1.17499 11.3666 1.18332 11.2416 1.19999 11.125C1.21665 11.0083 1.24999 10.9083 1.29999 10.825C1.64999 10.075 2.06665 9.38331 2.54999 8.74998C3.03332 8.11664 3.56665 7.53331 4.14999 6.99998L2.07499 4.89998C1.89165 4.71664 1.79999 4.48731 1.79999 4.21198C1.79999 3.93731 1.89999 3.69998 2.09999 3.49998C2.28332 3.31664 2.51665 3.22498 2.79999 3.22498C3.08332 3.22498 3.31665 3.31664 3.49999 3.49998L20.5 20.5C20.6833 20.6833 20.7793 20.9126 20.788 21.188C20.796 21.4626 20.7 21.7 20.5 21.9C20.3167 22.0833 20.0833 22.175 19.8 22.175C19.5167 22.175 19.2833 22.0833 19.1 21.9ZM5.54999 8.39998C5.06665 8.83331 4.62499 9.30831 4.22499 9.82498C3.82499 10.3416 3.48332 10.9 3.19999 11.5C4.03332 13.1833 5.22899 14.5206 6.78699 15.512C8.34565 16.504 10.0833 17 12 17C12.3333 17 12.6583 16.9793 12.975 16.938C13.2917 16.896 13.6167 16.85 13.95 16.8L13.05 15.85C12.8667 15.9 12.6917 15.9373 12.525 15.962C12.3583 15.9873 12.1833 16 12 16C10.75 16 9.68732 15.5626 8.81199 14.688C7.93732 13.8126 7.49999 12.75 7.49999 11.5C7.49999 11.3166 7.51232 11.1416 7.53699 10.975C7.56232 10.8083 7.59999 10.6333 7.64999 10.45L5.54999 8.39998Z" fill="#1C1C1E"/>
</svg>
